<svg xmlns="http://www.w3.org/2000/svg" xmlns:xlink="http://www.w3.org/1999/xlink" width="368" height="214" viewBox="0 0 368 214">
  <defs>
    <path id="rate-us-a" d="M233.369924,6.77755437 C217.901229,8.82310143 200.72877,11.0291567 185.204873,12.8806008 L185.204873,12.8806008 C165.970021,15.1687766 149.266595,16.9115976 141.481927,17.1131661 L141.481927,17.1131661 C131.447854,17.3748319 115.991552,17.1322032 98.8187171,16.6394802 L98.8187171,16.6394802 C83.8235615,16.2102139 67.5181935,15.5905774 52.3732028,14.9522771 L52.3732028,14.9522771 C21.2683286,13.6383491 0.299294757,11.4994833 0.299294757,11.4994833 L0.299294757,11.4994833 L1.48182825,32.8620121 L45.617478,41.0143384 L86.7376485,47.31858 L102.153018,49.6855169 C102.153018,49.6855169 119.153111,87.371362 116.509403,101.697657 L116.509403,101.697657 C124.579471,106.038472 133.821183,108.502087 143.64496,108.502087 L143.64496,108.502087 C158.031387,108.502087 171.174821,103.213153 181.213024,94.4747854 L181.213024,94.4747854 C188.358921,78.8532262 187.716771,43.4850457 187.716771,43.4850457 L187.716771,43.4850457 L199.613831,40.5925376 L242.085522,30.259912 L280.960043,20.8014965 L280.960043,0.301232934 C280.960043,0.301232934 259.622618,3.3057235 233.369924,6.77755437"/>
  </defs>
  <g fill="none" fill-rule="evenodd">
    <path fill="#242429" d="M255.311051,123.120134 C255.311051,163.843691 222.099097,196.856506 181.130263,196.856506 C140.161055,196.856506 106.9491,163.843691 106.9491,123.120134 C106.9491,82.3969499 140.161055,49.3837614 181.130263,49.3837614 C222.099097,49.3837614 255.311051,82.3969499 255.311051,123.120134"/>
    <path fill="#2E2E37" d="M270.649325,126.809136 C270.649325,173.314723 232.721507,211.014753 185.93539,211.014753 C139.149273,211.014753 101.22183,173.314723 101.22183,126.809136 C101.22183,80.3035489 139.149273,42.6031461 185.93539,42.6031461 C232.721507,42.6031461 270.649325,80.3035489 270.649325,126.809136"/>
    <path fill="#437ADC" d="M222.048923,167.908218 C212.04738,176.593489 198.951456,181.850656 184.617032,181.850656 C174.828765,181.850656 165.620086,179.402011 157.579563,175.087201 C139.809892,165.548615 127.742933,146.901809 127.742933,125.457612 C127.742933,123.969875 127.803175,122.496977 127.915051,121.03892 C128.813432,109.571098 133.168387,99.0641836 139.95245,90.5458658 C150.365206,77.4641636 166.503499,69.0682782 184.617032,69.0682782 C200.938295,69.0682782 215.653997,75.8873844 226.026342,86.8098267 C233.176342,94.333846 238.261677,103.813072 240.383216,114.353377 C241.10873,117.944723 241.486641,121.654792 241.486641,125.457612 C241.486641,142.386656 233.962472,157.575677 222.048923,167.908218 M270.703304,106.234636 C269.020763,98.9505964 266.422247,92.0118504 263.031053,85.5466491 C248.377418,57.571335 218.957759,38.4684081 185.052098,38.4684081 C148.31091,38.4684081 116.835181,60.8993023 103.708724,92.7484755 C100.730066,99.9667445 98.6974649,107.671712 97.7616553,115.708819 C97.3719275,119.04994 97.1699566,122.450255 97.1699566,125.896608 C97.1699566,174.181731 136.516602,213.324809 185.052098,213.324809 C233.587924,213.324809 272.93457,174.181731 272.93457,125.896608 C272.93457,119.135442 272.16437,112.555143 270.703304,106.234636"/>
    <path fill="#F9D0B5" d="M321.721666 75.7158498L326.576099 73.3018803C326.576099 73.3018803 328.814989 72.0655934 332.704695 70.8001911 336.5944 69.5347888 338.948952 70.1342685 345.074543 67.3544895 352.026669 64.1991958 349.075029 70.01818 346.028006 72.0678331 343.64942 73.6673165 340.479223 73.4224481 339.017298 75.526226 340.156646 76.2612045 341.774039 77.9230249 351.69996 79.0167207 353.479957 79.2126901 359.279591 78.5206382 359.279591 78.5206382 361.013022 78.5351959 364.631597 78.3825264 365.146819 80.3422202 365.274874 80.827851 364.72285 81.4471143 364.72285 81.4471143 364.72285 81.4471143 366.987651 81.2996706 367.40073 83.300798 367.562958 84.0876617 362.650694 85.5531394 362.650694 85.5531394 362.650694 85.5531394 365.12579 85.8364551 365.374013 87.3295552 365.444237 87.7517292 351.202388 92.4568607 351.202388 92.4568607L354.403377 92.2172182 357.68886 91.6188583C357.68886 91.6188583 359.449704 91.703965 359.73548 93.1082256 359.848514 93.6655252 356.890114 94.6771005 353.414615 95.6117811 348.00628 97.0660605 343.964862 96.9600504 339.953486 96.4288801 335.106563 95.7868471 333.470018 96.0026 327.55322 93.7558577 325.112296 92.8286426 321.433637 90.8387135 319.869193 89.7913039M45.0665106 88.0864076L40.4794523 85.649295C40.4794523 85.649295 38.3719966 84.3965841 34.6546581 83.1434999 30.9373196 81.8907889 28.6019192 82.5608176 22.797779 79.7646145 16.209539 76.5902838 18.7263188 82.6242743 21.5724354 84.7131213 23.7936757 86.3435865 26.9022855 86.029289 28.1978525 88.2036159 27.0401038 88.9938391 25.3573688 90.7616696 15.6011858 92.0871691 13.8519826 92.3249453 8.23485464 91.7068019 8.23485464 91.7068019 6.54198041 91.7538346 3.02029128 91.6601425 2.39466384 93.719874 2.23957133 94.2305143 2.73939733 94.8676947 2.73939733 94.8676947 2.73939733 94.8676947.53805998 94.7553389.0096939528 96.856504-.198347823 97.6825616 4.50474821 99.1263893 4.50474821 99.1263893 4.50474821 99.1263893 2.07133538 99.4679359 1.73561454 101.034571 1.64098181 101.477649 15.2463131 106.1406 15.2463131 106.1406L12.1369523 105.94799 8.96788271 105.381732C8.96788271 105.381732 7.24421528 105.50342 6.87732572 106.977856 6.73162138 107.563151 9.55595747 108.567634 12.8895077 109.481785 18.0770332 110.904709 22.0279493 110.719938 25.9762367 110.090969 30.7476786 109.330982 32.3308991 109.526578 38.2458197 107.067815 40.6863675 106.053254 44.4010773 103.903936 45.993686 102.779632"/>
    <g transform="translate(40.664 73.326)">
      <mask id="rate-us-b" fill="#fff">
        <use xlink:href="#rate-us-a"/>
      </mask>
      <path fill="#FFC100" d="M326.740462,-6.89461342 L326.740462,16.968858 L275.011288,27.9797243 L218.494523,40.0070184 L202.664197,43.3743323 C202.664197,43.3743323 203.51852,84.5446996 194.009058,102.729165 C180.652325,112.901282 163.16217,119.05808 144.018572,119.05808 C130.946113,119.05808 118.648741,116.190582 107.91018,111.137185 C111.428114,94.460377 88.8063874,50.5916046 88.8063874,50.5916046 L68.293243,47.8368351 L13.5756272,40.4978751 L-50.651075,31.8770887 L-53.7243853,7.00988074 C-53.7243853,7.00988074 -18.8248141,8.63064084 22.5653601,10.1599486 C42.7183745,10.9031391 64.4159301,11.6243064 84.3691642,12.1241217 C107.220338,12.6974721 127.788309,12.9800413 141.140535,12.6758221 C151.499439,12.4414054 173.726111,10.4122825 199.320883,7.74859199 C219.978605,5.59330207 242.830154,3.02554327 263.412771,0.644048704 C298.347642,-3.39665329 326.740462,-6.89461342 326.740462,-6.89461342" mask="url(#rate-us-b)"/>
    </g>
    <g transform="translate(127.035 .164)">
      <polygon fill="#D5A100" points="103.986 115.971 101.344 116.646 101.344 101.218"/>
      <polyline stroke="#24272D" stroke-width="3.372" points="74.17 13.661 72.868 24.326 76.955 25.992 83.877 18.131"/>
      <path fill="#24272D" d="M17.7882103,26.5007341 C17.7882103,26.5007341 2.67063303,45.3798643 22.641517,50.8140019 L17.7882103,26.5007341 Z"/>
      <path fill="#F9D0B5" d="M68.2068718,52.3017268 C69.7499109,48.0277279 83.1941413,42.8735465 86.2265192,52.5753373 C90.1365029,65.0863959 66.2038126,71.2021337 66.2038126,71.2021337 L66.7344317,89.3690552 L69.7611767,89.2231046 C69.7611767,89.2231046 75.1150605,96.6617291 59.1694469,96.8916665 C41.1742088,97.1507193 40.7772771,90.3638331 40.7772771,90.3638331 L44.7495983,90.381377 L44.9366106,75.9136109 C44.9366106,75.9136109 23.7614126,77.1737873 19.38878,74.8169289 C19.38878,74.8169289 16.4007143,54.2509689 19.8499268,39.7671519 L37.4914188,24.489379 L65.4764174,27.034368 L68.2068718,52.3017268 Z"/>
      <path stroke="#D5A100" stroke-width="3.372" d="M69.7610641,89.2229927 C69.7610641,89.2229927 70.2537551,96.4876709 59.1693343,96.8915545 C40.7771645,97.5615831 40.7771645,90.3637211 40.7771645,90.3637211"/>
      <path fill="#24272D" d="M79.2650808,47.0755407 C79.2650808,47.0755407 92.9669225,41.8138561 77.408477,25.2329801 C61.8496559,8.65210415 47.5732584,16.8619147 47.5732584,16.8619147 C47.5732584,16.8619147 43.8867131,0.182494153 32.8589969,0.0354237985 C17.148463,-0.173610208 14.2929582,23.9100935 14.2929582,23.9100935 C14.2929582,23.9100935 6.61043355,10.6491255 2.07482241,12.4456981 C-2.46116425,14.2422707 -3.36355485,57.8198886 59.5195129,37.6843147 C59.5195129,37.6843147 53.9301739,49.6085849 68.2069469,52.3017641 C68.2069469,52.3017641 70.7954523,47.2162653 79.2650808,47.0755407"/>
      <path fill="#FFF" d="M33.5762528,67.5557221 C33.7489951,69.644569 37.401743,71.0133685 40.9692464,69.5941769 C46.2570374,67.4911455 47.5773892,62.0506622 44.3794041,60.3414359 C41.3169841,58.704625 39.4682663,63.0689564 36.4065973,64.074186 C34.7403855,64.6210339 33.4448185,65.9678102 33.5762528,67.5557221"/>
      <polygon fill="#D0A68A" points="44.937 75.914 58.9 73.194 44.89 82.247"/>
      <polygon fill="#24272D" points="33.651 50.313 28.635 61.911 34.395 62.086"/>
      <path fill="#24272D" d="M39.3760369 51.5495403C39.0617211 53.1176686 40.0857823 54.6421238 41.6633699 54.9545549 43.2405819 55.2669861 44.7742328 54.2490652 45.0885487 52.6809368 45.40324 51.1131818 44.3791788 49.5887267 42.8015912 49.2762955 41.2240037 48.963491 39.6903527 49.981412 39.3760369 51.5495403M24.2574082 51.2827233C23.9430924 52.8508516 24.9671536 54.3753068 26.5443657 54.687738 28.1219532 55.0001691 29.6556041 53.9822482 29.96992 52.4144931 30.2842358 50.8463648 29.2605501 49.3219097 27.6829625 49.0094785 26.105375 48.6970473 24.571724 49.714595 24.2574082 51.2827233"/>
    </g>
  </g>
</svg>
